<svg xmlns="http://www.w3.org/2000/svg" version="1.1" xmlns:xlink="http://www.w3.org/1999/xlink" xmlns:svgjs="http://svgjs.dev/svgjs" width="2000" height="1500" viewBox="0 0 2000 1500"><rect width="2000" height="1500" fill="#ffffff"></rect><g transform="matrix(0.75,0,0,0.75,249.090909090909,278.98548387096776)"><svg viewBox="0 0 396 248" data-background-color="#ffffff" preserveAspectRatio="xMidYMid meet" height="1252" width="2000" xmlns="http://www.w3.org/2000/svg" xmlns:xlink="http://www.w3.org/1999/xlink"><g id="tight-bounds" transform="matrix(1,0,0,1,0.2400000000000091,0.4000000000000057)"><svg viewBox="0 0 395.52 247.2" height="247.2" width="395.52"><g><svg></svg></g><g><svg viewBox="0 0 395.52 247.2" height="247.2" width="395.52"><g transform="matrix(1,0,0,1,75.54432,90.76408654900133)"><svg viewBox="0 0 244.43135999999998 65.67182690199732" height="65.67182690199732" width="244.43135999999998"><g><svg viewBox="0 0 244.43135999999998 65.67182690199732" height="65.67182690199732" width="244.43135999999998"><g><svg viewBox="0 0 244.43135999999998 65.67182690199732" height="65.67182690199732" width="244.43135999999998"><g><svg viewBox="0 0 244.43135999999998 65.67182690199732" height="65.67182690199732" width="244.43135999999998"><g id="textblocktransform"><svg viewBox="0 0 244.43135999999998 65.67182690199732" height="65.67182690199732" width="244.43135999999998" id="textblock"><g><svg viewBox="0 0 244.43135999999998 36.59068996214988" height="36.59068996214988" width="244.43135999999998"><g transform="matrix(1,0,0,1,0,0)"><svg width="244.43135999999998" viewBox="1.85 -38.8 264.16999999999996 39.55" height="36.59068996214988" data-palette-color="#0b82e6"><path d="M16 0.6L16 0.6Q13.28 0.6 10.75-0.51 8.22-1.63 6.21-3.89 4.2-6.15 3.03-9.65 1.85-13.15 1.85-17.9L1.85-17.9Q1.85-23.6 3.84-27.51 5.83-31.43 9.16-33.44 12.5-35.45 16.55-35.45L16.55-35.45Q19.3-35.45 21.04-34.93 22.78-34.4 23.81-33.68 24.85-32.95 25.5-32.35L25.5-32.35 22.7-27.1Q21.63-28.28 20.48-28.99 19.33-29.7 16.8-29.7L16.8-29.7Q14.25-29.7 12.46-28.23 10.68-26.75 9.74-24.16 8.8-21.58 8.8-18.25L8.8-18.25Q8.8-11.73 10.99-8.41 13.18-5.1 16.25-5.1L16.25-5.1Q18.63-5.1 20.3-5.78 21.98-6.45 22.8-7.3L22.8-7.3 25.55-2.35Q24.85-1.78 23.69-1.09 22.53-0.4 20.66 0.1 18.8 0.6 16 0.6ZM35.05 0.7L35.05 0.7Q32.75 0.7 31.23-0.33 29.72-1.35 28.98-3.05 28.25-4.75 28.25-6.8L28.25-6.8Q28.25-7.95 28.84-9.33 29.42-10.7 30.92-11.95 32.42-13.2 35.15-14 37.87-14.8 42.15-14.8L42.15-14.8 42.15-15.95Q42.15-17.8 41.26-19.03 40.37-20.25 37.7-20.25L37.7-20.25Q35.75-20.25 33.88-19.59 32.02-18.93 31.15-17.95L31.15-17.95 29.15-22.75Q30.65-23.78 33.16-24.64 35.67-25.5 38.75-25.5L38.75-25.5Q42.45-25.5 44.5-24.38 46.55-23.25 47.37-21.19 48.2-19.13 48.2-16.35L48.2-16.35 48.2 0 42.85 0 42.4-3.55Q39.8 0.7 35.05 0.7ZM37.7-4.1L37.7-4.1Q38.82-4.1 40.11-5.01 41.4-5.93 42.15-7.35L42.15-7.35 42.15-10.9Q41.9-10.95 41.61-10.95 41.32-10.95 40.95-10.95L40.95-10.95Q39.57-10.95 38.06-10.64 36.55-10.33 35.5-9.55 34.45-8.78 34.45-7.4L34.45-7.4Q34.45-5.6 35.25-4.85 36.05-4.1 37.7-4.1ZM60.9 0L54.65 0 54.65-24.9 60.3-24.9 60.6-20.5Q61-21.48 61.83-22.58 62.67-23.68 64.16-24.44 65.65-25.2 68-25.2L68-25.2Q68.72-25.2 69.27-25.1 69.82-25 70.3-24.8L70.3-24.8 68.9-18.25Q68.1-19.05 66.45-19.05L66.45-19.05Q64.52-19.05 63.3-18.26 62.07-17.48 61.48-16.5 60.9-15.53 60.9-15L60.9-15 60.9 0ZM83.59 0.65L83.59 0.65Q79.39 0.65 76.82-1.11 74.24-2.88 73.07-5.79 71.89-8.7 71.89-12.15L71.89-12.15Q71.89-15.78 73.23-18.81 74.57-21.85 77.16-23.68 79.74-25.5 83.49-25.5L83.49-25.5Q89.09-25.5 91.32-22.26 93.54-19.03 93.54-13.1L93.54-13.1Q93.54-12.58 93.52-11.78 93.49-10.98 93.44-10.4L93.44-10.4 78.44-10.4Q78.59-7.45 80.11-5.78 81.62-4.1 84.64-4.1L84.64-4.1Q86.19-4.1 87.97-4.79 89.74-5.48 90.59-6.45L90.59-6.45 92.59-1.7Q91.59-1.03 89.43-0.19 87.27 0.65 83.59 0.65ZM78.39-14.3L78.39-14.3 87.19-14.3Q87.19-16.93 86.73-18.31 86.27-19.7 85.47-20.23 84.67-20.75 83.64-20.75L83.64-20.75Q81.09-20.75 79.82-18.86 78.54-16.98 78.39-14.3ZM109.54 0.65L109.54 0.65Q105.34 0.65 102.77-1.11 100.19-2.88 99.02-5.79 97.84-8.7 97.84-12.15L97.84-12.15Q97.84-15.78 99.18-18.81 100.52-21.85 103.1-23.68 105.69-25.5 109.44-25.5L109.44-25.5Q115.04-25.5 117.27-22.26 119.49-19.03 119.49-13.1L119.49-13.1Q119.49-12.58 119.47-11.78 119.44-10.98 119.39-10.4L119.39-10.4 104.39-10.4Q104.54-7.45 106.05-5.78 107.57-4.1 110.59-4.1L110.59-4.1Q112.14-4.1 113.92-4.79 115.69-5.48 116.54-6.45L116.54-6.45 118.54-1.7Q117.54-1.03 115.38-0.19 113.22 0.65 109.54 0.65ZM104.34-14.3L104.34-14.3 113.14-14.3Q113.14-16.93 112.68-18.31 112.22-19.7 111.42-20.23 110.62-20.75 109.59-20.75L109.59-20.75Q107.04-20.75 105.77-18.86 104.49-16.98 104.34-14.3ZM131.39 0L125.14 0 125.14-24.9 130.79-24.9 131.09-20.5Q131.49-21.48 132.33-22.58 133.16-23.68 134.65-24.44 136.14-25.2 138.49-25.2L138.49-25.2Q139.21-25.2 139.76-25.1 140.31-25 140.79-24.8L140.79-24.8 139.39-18.25Q138.59-19.05 136.94-19.05L136.94-19.05Q135.01-19.05 133.79-18.26 132.56-17.48 131.98-16.5 131.39-15.53 131.39-15L131.39-15 131.39 0ZM175.78 0.6L175.78 0.6Q173.06 0.6 170.53-0.51 168.01-1.63 165.99-3.89 163.98-6.15 162.81-9.65 161.63-13.15 161.63-17.9L161.63-17.9Q161.63-23.6 163.62-27.51 165.61-31.43 168.94-33.44 172.28-35.45 176.33-35.45L176.33-35.45Q179.08-35.45 180.82-34.93 182.56-34.4 183.59-33.68 184.63-32.95 185.28-32.35L185.28-32.35 182.48-27.1Q181.41-28.28 180.26-28.99 179.11-29.7 176.58-29.7L176.58-29.7Q174.03-29.7 172.24-28.23 170.46-26.75 169.52-24.16 168.58-21.58 168.58-18.25L168.58-18.25Q168.58-11.73 170.77-8.41 172.96-5.1 176.03-5.1L176.03-5.1Q178.41-5.1 180.08-5.78 181.76-6.45 182.58-7.3L182.58-7.3 185.33-2.35Q184.63-1.78 183.47-1.09 182.31-0.4 180.44 0.1 178.58 0.6 175.78 0.6ZM195.83 0L189.58 0 189.58-24.9 195.23-24.9 195.53-20.5Q195.93-21.48 196.77-22.58 197.6-23.68 199.09-24.44 200.58-25.2 202.93-25.2L202.93-25.2Q203.65-25.2 204.2-25.1 204.75-25 205.23-24.8L205.23-24.8 203.83-18.25Q203.03-19.05 201.38-19.05L201.38-19.05Q199.45-19.05 198.23-18.26 197-17.48 196.42-16.5 195.83-15.53 195.83-15L195.83-15 195.83 0ZM213.93 0.7L213.93 0.7Q211.63 0.7 210.11-0.33 208.6-1.35 207.86-3.05 207.13-4.75 207.13-6.8L207.13-6.8Q207.13-7.95 207.71-9.33 208.3-10.7 209.8-11.95 211.3-13.2 214.03-14 216.75-14.8 221.03-14.8L221.03-14.8 221.03-15.95Q221.03-17.8 220.14-19.03 219.25-20.25 216.58-20.25L216.58-20.25Q214.63-20.25 212.76-19.59 210.9-18.93 210.03-17.95L210.03-17.95 208.03-22.75Q209.53-23.78 212.04-24.64 214.55-25.5 217.63-25.5L217.63-25.5Q221.33-25.5 223.38-24.38 225.43-23.25 226.25-21.19 227.08-19.13 227.08-16.35L227.08-16.35 227.08 0 221.73 0 221.28-3.55Q218.68 0.7 213.93 0.7ZM216.58-4.1L216.58-4.1Q217.7-4.1 218.99-5.01 220.28-5.93 221.03-7.35L221.03-7.35 221.03-10.9Q220.78-10.95 220.49-10.95 220.2-10.95 219.83-10.95L219.83-10.95Q218.45-10.95 216.94-10.64 215.43-10.33 214.38-9.55 213.33-8.78 213.33-7.4L213.33-7.4Q213.33-5.6 214.13-4.85 214.93-4.1 216.58-4.1ZM240.17 0L234.12 0 234.12-19.65 230.77-19.65 230.77-24.9 234.12-24.9 234.12-29.5Q234.12-32.4 234.96-34.23 235.8-36.05 237.1-37.04 238.4-38.02 239.86-38.41 241.32-38.8 242.57-38.8L242.57-38.8Q245.02-38.8 246.26-38.36 247.5-37.93 247.72-37.7L247.72-37.7 247.72-32.25Q247.17-32.98 246.05-33.31 244.92-33.65 244.12-33.65L244.12-33.65Q243.2-33.65 242.29-33.35 241.37-33.05 240.77-32.19 240.17-31.33 240.17-29.65L240.17-29.65 240.17-24.9 246.22-24.9 246.22-19.65 240.17-19.65 240.17 0ZM259.42 0.75L259.42 0.75Q255.2 0.75 253.71-1.45 252.22-3.65 252.22-8.1L252.22-8.1 252.22-19.65 248.97-19.65 248.97-24.9 252.47-24.9 252.82-30.15 258.27-32.5 258.27-24.9 264.42-24.9 264.42-19.65 258.27-19.65 258.27-8.25Q258.27-6.08 258.88-5.24 259.5-4.4 260.57-4.4L260.57-4.4Q261.67-4.4 262.89-4.98 264.12-5.55 264.82-6.15L264.82-6.15 266.02-1.1Q265.25-0.55 264.01-0.14 262.77 0.28 261.51 0.51 260.25 0.75 259.42 0.75Z" opacity="1" transform="matrix(1,0,0,1,0,0)" fill="#0b82e6" class="wordmark-text-0" data-fill-palette-color="primary" id="text-0"></path></svg></g></svg></g><g transform="matrix(1,0,0,1,0,45.22887368565438)"><svg viewBox="0 0 244.43135999999998 20.442953216342936" height="20.442953216342936" width="244.43135999999998"><g transform="matrix(1,0,0,1,0,0)"><svg width="244.43135999999998" viewBox="2.1 -36.45999999577501 447.84999999999997 37.45999999577501" height="20.442953216342936" data-palette-color="#0b82e6"><path d="M3 0.15L3 0.15Q2.5 0.15 2.3-0.2 2.1-0.55 2.1-0.95L2.1-0.95Q2.15-1.8 2.5-1.9 2.85-2 3.35-2L3.35-2Q4.95-2 5.6-2.58 6.25-3.15 6.43-4.03 6.6-4.9 6.6-5.85L6.6-5.85 6.6-25.7Q6.6-26.65 6.43-27.53 6.25-28.4 5.6-28.98 4.95-29.55 3.35-29.55L3.35-29.55Q2.85-29.55 2.5-29.65 2.15-29.75 2.1-30.6L2.1-30.6Q2.1-31 2.3-31.35 2.5-31.7 3-31.7L3-31.7Q4.6-31.65 6-31.6 7.4-31.55 8.9-31.55L8.9-31.55 15.95-31.55Q18.85-31.55 20.53-31.13 22.2-30.7 23.45-29.9L23.45-29.9Q24.75-29.05 25.5-27.58 26.25-26.1 26.25-24.35L26.25-24.35Q26.25-22.1 25.2-20.58 24.15-19.05 22.58-18.18 21-17.3 19.5-16.95L19.5-16.95 19.5-16.8Q22.15-16.85 24.2-15.85 26.25-14.85 27.45-13.2 28.65-11.55 28.7-9.6L28.7-9.6Q28.8-6.75 27.5-4.9 26.2-3.05 24.13-1.95 22.05-0.85 19.63-0.4 17.2 0.05 14.95 0.05L14.95 0.05 8.95 0Q7.45 0 6.03 0.03 4.6 0.05 3 0.15ZM11.55-29.7L11.55-17.8 13.65-17.8Q14.65-17.8 15.9-17.9 17.15-18 18.3-18.53 19.45-19.05 20.18-20.28 20.9-21.5 20.9-23.75L20.9-23.75Q20.9-26.4 19.63-28.05 18.35-29.7 15.05-29.7L15.05-29.7 11.55-29.7ZM15.15-1.95L15.15-1.95Q17.4-2 19.25-2.7 21.1-3.4 22.2-5.05 23.3-6.7 23.3-9.6L23.3-9.6Q23.15-11.2 22.23-12.6 21.3-14 19.23-14.9 17.15-15.8 13.6-15.8L13.6-15.8 11.55-15.8 11.55-5.85Q11.55-3.35 12.3-2.65 13.05-1.95 15.15-1.95ZM42.4 0.6L42.4 0.6Q39 0.6 37-1.45 35-3.5 35-6.85L35-6.85 35-16.1Q35-17 34.92-17.78 34.85-18.55 34.35-19.03 33.85-19.5 32.45-19.5L32.45-19.5Q32-19.5 31.62-19.63 31.25-19.75 31.25-20.5L31.25-20.5Q31.25-21.25 32.05-21.4L32.05-21.4Q34.35-21.75 35.57-22.1 36.8-22.45 37.45-22.7 38.1-22.95 38.6-23L38.6-23Q39-23.05 39.27-22.85 39.55-22.65 39.55-22.05L39.55-22.05 39.55-6.9Q39.55-5.25 40.27-4.2 41-3.15 42.1-2.65 43.2-2.15 44.35-2.15L44.35-2.15Q46.1-2.15 47.4-2.78 48.7-3.4 49.5-4.23 50.3-5.05 50.55-5.6L50.55-5.6 50.55-16.1Q50.55-17 50.47-17.78 50.4-18.55 49.9-19.03 49.4-19.5 48-19.5L48-19.5Q47.55-19.5 47.17-19.63 46.8-19.75 46.8-20.5L46.8-20.5Q46.8-21.25 47.6-21.4L47.6-21.4Q49.9-21.75 51.12-22.1 52.35-22.45 53-22.7 53.65-22.95 54.15-23L54.15-23Q54.55-23.05 54.82-22.85 55.1-22.65 55.1-22.05L55.1-22.05 55.1-4.75Q55.1-1.8 59.05-1.8L59.05-1.8Q59.6-1.8 59.75-1.5 59.9-1.2 59.9-0.85L59.9-0.85Q59.9-0.15 59.05 0L59.05 0 51 0.55Q50.65 0.55 50.6 0.25 50.55-0.05 50.55-0.45L50.55-0.45 50.55-3.25 50.45-3.25Q49.5-2.35 48.42-1.45 47.35-0.55 45.92 0.03 44.5 0.6 42.4 0.6ZM62.65 0.15L62.65 0.15Q62.3 0.15 62.07-0.18 61.85-0.5 61.85-0.85L61.85-0.85Q61.95-1.6 62.25-1.68 62.55-1.75 63.05-1.75L63.05-1.75Q64.45-1.75 64.95-2.23 65.45-2.7 65.52-3.5 65.6-4.3 65.6-5.15L65.6-5.15 65.6-16.6Q65.6-17.5 65.52-18.28 65.45-19.05 64.95-19.53 64.45-20 63.05-20L63.05-20Q62.6-20 62.22-20.13 61.85-20.25 61.85-21L61.85-21Q61.85-21.75 62.65-21.9L62.65-21.9Q64.95-22.25 66.17-22.6 67.4-22.95 68.05-23.2 68.7-23.45 69.2-23.5L69.2-23.5Q69.6-23.55 69.87-23.35 70.15-23.15 70.15-22.55L70.15-22.55 70.15-5.15Q70.15-4.3 70.22-3.5 70.3-2.7 70.82-2.23 71.35-1.75 72.75-1.75L72.75-1.75Q73.2-1.75 73.52-1.68 73.85-1.6 73.9-0.85L73.9-0.85Q73.9-0.5 73.7-0.18 73.5 0.15 73.1 0.15L73.1 0.15Q71.65 0.05 70.42 0.03 69.2 0 67.85 0L67.85 0Q66.5 0 65.3 0.03 64.1 0.05 62.65 0.15ZM67.6-29.05L67.6-29.05Q66.2-29.05 65.25-29.93 64.3-30.8 64.3-32.1L64.3-32.1Q64.3-33.25 65.45-34.15 66.6-35.05 68.05-35.05L68.05-35.05Q69.3-35.05 70.1-34.18 70.9-33.3 70.9-31.95L70.9-31.95Q70.9-30.75 69.95-29.9 69-29.05 67.6-29.05ZM76.94 0.15L76.94 0.15Q76.59 0.15 76.37-0.18 76.14-0.5 76.14-0.85L76.14-0.85Q76.19-1.6 76.52-1.68 76.84-1.75 77.29-1.75L77.29-1.75Q78.69-1.75 79.22-2.23 79.74-2.7 79.82-3.5 79.89-4.3 79.89-5.15L79.89-5.15 79.89-29.55Q79.89-30.45 79.82-31.23 79.74-32 79.24-32.48 78.74-32.95 77.34-32.95L77.34-32.95Q76.89-32.95 76.52-33.08 76.14-33.2 76.14-33.95L76.14-33.95Q76.14-34.7 76.94-34.85L76.94-34.85Q79.24-35.2 80.47-35.55 81.69-35.9 82.34-36.15 82.99-36.4 83.49-36.45L83.49-36.45Q83.89-36.5 84.17-36.3 84.44-36.1 84.44-35.5L84.44-35.5 84.44-5.15Q84.44-4.3 84.52-3.5 84.59-2.7 85.12-2.23 85.64-1.75 87.04-1.75L87.04-1.75Q87.49-1.75 87.82-1.68 88.14-1.6 88.19-0.85L88.19-0.85Q88.19-0.5 87.99-0.18 87.79 0.15 87.39 0.15L87.39 0.15Q85.94 0.05 84.72 0.03 83.49 0 82.14 0L82.14 0Q80.79 0 79.59 0.03 78.39 0.05 76.94 0.15ZM101.49 0.6L101.49 0.6Q98.69 0.6 96.29-0.9 93.89-2.4 92.44-5.1 90.99-7.8 90.99-11.35L90.99-11.35Q90.99-14.45 92.47-17.18 93.94-19.9 96.57-21.58 99.19-23.25 102.54-23.25L102.54-23.25Q104.14-23.25 105.69-22.88 107.24-22.5 108.34-21.85L108.34-21.85 108.49-21.85 108.49-29.5Q108.49-30.4 108.42-31.18 108.34-31.95 107.84-32.43 107.34-32.9 105.94-32.9L105.94-32.9Q105.49-32.9 105.12-33.02 104.74-33.15 104.74-33.9L104.74-33.9Q104.74-34.65 105.54-34.8L105.54-34.8Q107.84-35.15 109.07-35.5 110.29-35.85 110.94-36.1 111.59-36.35 112.09-36.4L112.09-36.4Q112.49-36.45 112.77-36.25 113.04-36.05 113.04-35.45L113.04-35.45 113.04-4.6Q113.04-1.65 116.94-1.65L116.94-1.65Q117.49-1.65 117.64-1.38 117.79-1.1 117.79-0.85L117.79-0.85Q117.79-0.15 116.94 0L116.94 0 108.99 0.55Q108.64 0.55 108.59 0.25 108.54-0.05 108.54-0.45L108.54-0.45 108.54-2.45 108.39-2.45Q107.14-1.15 105.27-0.28 103.39 0.6 101.49 0.6ZM103.19-1.9L103.19-1.9Q105.09-1.9 106.34-2.68 107.59-3.45 108.49-4.4L108.49-4.4 108.49-17.6Q108.24-18.45 107.57-19.33 106.89-20.2 105.77-20.83 104.64-21.45 103.04-21.45L103.04-21.45Q100.14-21.45 98.14-18.73 96.14-16 96.14-11.1L96.14-11.1Q96.14-8.75 96.92-6.63 97.69-4.5 99.24-3.2 100.79-1.9 103.19-1.9ZM132.09 0.15L132.09 0.15Q131.59 0.15 131.39-0.2 131.19-0.55 131.19-0.95L131.19-0.95Q131.24-1.8 131.59-1.9 131.94-2 132.44-2L132.44-2Q134.03-2 134.69-2.58 135.34-3.15 135.51-4.03 135.69-4.9 135.69-5.85L135.69-5.85 135.69-25.7Q135.69-26.65 135.51-27.53 135.34-28.4 134.69-28.98 134.03-29.55 132.44-29.55L132.44-29.55Q131.94-29.55 131.59-29.65 131.24-29.75 131.19-30.6L131.19-30.6Q131.19-31 131.39-31.35 131.59-31.7 132.09-31.7L132.09-31.7Q133.69-31.65 135.09-31.6 136.49-31.55 137.99-31.55L137.99-31.55 145.03-31.55Q147.94-31.55 149.61-31.13 151.29-30.7 152.54-29.9L152.54-29.9Q153.84-29.05 154.59-27.58 155.34-26.1 155.34-24.35L155.34-24.35Q155.34-22.1 154.29-20.58 153.24-19.05 151.66-18.18 150.09-17.3 148.59-16.95L148.59-16.95 148.59-16.8Q151.24-16.85 153.29-15.85 155.34-14.85 156.54-13.2 157.74-11.55 157.79-9.6L157.79-9.6Q157.89-6.75 156.59-4.9 155.29-3.05 153.21-1.95 151.14-0.85 148.71-0.4 146.28 0.05 144.03 0.05L144.03 0.05 138.03 0Q136.53 0 135.11 0.03 133.69 0.05 132.09 0.15ZM140.64-29.7L140.64-17.8 142.74-17.8Q143.74-17.8 144.99-17.9 146.24-18 147.39-18.53 148.54-19.05 149.26-20.28 149.99-21.5 149.99-23.75L149.99-23.75Q149.99-26.4 148.71-28.05 147.44-29.7 144.14-29.7L144.14-29.7 140.64-29.7ZM144.24-1.95L144.24-1.95Q146.49-2 148.34-2.7 150.19-3.4 151.29-5.05 152.39-6.7 152.39-9.6L152.39-9.6Q152.24-11.2 151.31-12.6 150.39-14 148.31-14.9 146.24-15.8 142.69-15.8L142.69-15.8 140.64-15.8 140.64-5.85Q140.64-3.35 141.39-2.65 142.14-1.95 144.24-1.95ZM173.88 0.6L173.88 0.6Q170.03 0.6 167.41-1.05 164.78-2.7 163.48-5.45 162.18-8.2 162.18-11.45L162.18-11.45Q162.18-13.65 162.96-15.73 163.73-17.8 165.18-19.53 166.63-21.25 168.68-22.25 170.73-23.25 173.33-23.25L173.33-23.25Q177.93-23.25 180.26-20.88 182.58-18.5 182.93-14.85L182.93-14.85Q182.93-13.1 181.96-12.55 180.98-12 179.43-12L179.43-12 167.28-12Q167.28-9.1 168.08-6.83 168.88-4.55 170.61-3.23 172.33-1.9 175.18-1.9L175.18-1.9Q177.28-1.9 178.78-2.8 180.28-3.7 181.68-5.95L181.68-5.95Q182.08-6.45 182.78-6L182.78-6Q183.18-5.8 183.28-5.38 183.38-4.95 183.18-4.65L183.18-4.65Q181.63-2.2 179.28-0.8 176.93 0.6 173.88 0.6ZM167.28-13.9L167.28-13.9 175.43-13.9Q176.63-13.9 177.36-14.38 178.08-14.85 178.13-16L178.13-16Q178.13-18.15 176.96-19.83 175.78-21.5 173.33-21.5L173.33-21.5Q170.83-21.5 169.16-19.5 167.48-17.5 167.28-13.9ZM196.03 0.85L196.03 0.85Q194.53 0.85 193.18 0.1 191.83-0.65 190.96-2.2 190.08-3.75 190.08-6.1L190.08-6.1 190.08-20.8 187.18-20.7Q186.83-20.7 186.66-20.98 186.48-21.25 186.48-21.6L186.48-21.6Q186.48-22.6 187.18-22.75L187.18-22.75Q189.03-23.1 189.98-23.93 190.93-24.75 191.46-25.9 191.98-27.05 192.43-28.4L192.43-28.4Q192.58-28.8 192.88-28.93 193.18-29.05 193.53-29.05L193.53-29.05Q193.83-29.05 194.21-28.9 194.58-28.75 194.58-28.35L194.58-28.35 194.23-22.65 200.08-23Q200.53-23.05 200.68-22.75 200.83-22.45 200.83-22.05L200.83-22.05Q200.83-21.55 200.66-21.05 200.48-20.55 200.23-20.55L200.23-20.55 194.63-20.7 194.63-5.5Q194.63-4.05 195.26-2.85 195.88-1.65 197.53-1.65L197.53-1.65Q198.08-1.65 198.78-1.75 199.48-1.85 200.28-2.2L200.28-2.2Q200.48-2.3 200.68-2.38 200.88-2.45 201.08-2.45L201.08-2.45Q201.48-2.45 201.68-2.13 201.88-1.8 202.03-1.45L202.03-1.45Q202.18-1 201.78-0.75L201.78-0.75Q200.23 0.25 198.93 0.55 197.63 0.85 196.03 0.85ZM214.98 0.85L214.98 0.85Q213.48 0.85 212.13 0.1 210.78-0.65 209.9-2.2 209.03-3.75 209.03-6.1L209.03-6.1 209.03-20.8 206.13-20.7Q205.78-20.7 205.6-20.98 205.43-21.25 205.43-21.6L205.43-21.6Q205.43-22.6 206.13-22.75L206.13-22.75Q207.98-23.1 208.93-23.93 209.88-24.75 210.4-25.9 210.93-27.05 211.38-28.4L211.38-28.4Q211.53-28.8 211.83-28.93 212.13-29.05 212.48-29.05L212.48-29.05Q212.78-29.05 213.15-28.9 213.53-28.75 213.53-28.35L213.53-28.35 213.18-22.65 219.03-23Q219.48-23.05 219.63-22.75 219.78-22.45 219.78-22.05L219.78-22.05Q219.78-21.55 219.6-21.05 219.43-20.55 219.18-20.55L219.18-20.55 213.58-20.7 213.58-5.5Q213.58-4.05 214.2-2.85 214.83-1.65 216.48-1.65L216.48-1.65Q217.03-1.65 217.73-1.75 218.43-1.85 219.23-2.2L219.23-2.2Q219.43-2.3 219.63-2.38 219.83-2.45 220.03-2.45L220.03-2.45Q220.43-2.45 220.63-2.13 220.83-1.8 220.98-1.45L220.98-1.45Q221.13-1 220.73-0.75L220.73-0.75Q219.18 0.25 217.88 0.55 216.58 0.85 214.98 0.85ZM236.88 0.6L236.88 0.6Q233.03 0.6 230.4-1.05 227.78-2.7 226.47-5.45 225.18-8.2 225.18-11.45L225.18-11.45Q225.18-13.65 225.95-15.73 226.72-17.8 228.18-19.53 229.63-21.25 231.68-22.25 233.72-23.25 236.32-23.25L236.32-23.25Q240.93-23.25 243.25-20.88 245.57-18.5 245.93-14.85L245.93-14.85Q245.93-13.1 244.95-12.55 243.97-12 242.43-12L242.43-12 230.28-12Q230.28-9.1 231.07-6.83 231.88-4.55 233.6-3.23 235.32-1.9 238.18-1.9L238.18-1.9Q240.28-1.9 241.78-2.8 243.28-3.7 244.68-5.95L244.68-5.95Q245.07-6.45 245.78-6L245.78-6Q246.18-5.8 246.28-5.38 246.38-4.95 246.18-4.65L246.18-4.65Q244.63-2.2 242.28-0.8 239.93 0.6 236.88 0.6ZM230.28-13.9L230.28-13.9 238.43-13.9Q239.63-13.9 240.35-14.38 241.07-14.85 241.13-16L241.13-16Q241.13-18.15 239.95-19.83 238.78-21.5 236.32-21.5L236.32-21.5Q233.82-21.5 232.15-19.5 230.47-17.5 230.28-13.9ZM250.67 0.15L250.67 0.15Q250.32 0.15 250.1-0.18 249.87-0.5 249.87-0.85L249.87-0.85Q249.97-1.6 250.27-1.68 250.57-1.75 251.07-1.75L251.07-1.75Q252.47-1.75 252.97-2.23 253.47-2.7 253.55-3.5 253.62-4.3 253.62-5.15L253.62-5.15 253.62-16.6Q253.62-17.5 253.55-18.28 253.47-19.05 252.97-19.53 252.47-20 251.07-20L251.07-20Q250.62-20 250.25-20.13 249.87-20.25 249.87-21L249.87-21Q249.87-21.75 250.67-21.9L250.67-21.9Q252.97-22.25 254.2-22.6 255.42-22.95 256.05-23.2 256.67-23.45 257.17-23.5L257.17-23.5Q257.57-23.55 257.85-23.35 258.12-23.15 258.12-22.55L258.12-22.55 258.12-19.45 258.27-19.45Q259.97-21.1 261.77-22.18 263.57-23.25 265.07-23.25L265.07-23.25Q266.82-23.25 267.75-21.95 268.67-20.65 268.67-19.2L268.67-19.2Q268.67-17.95 267.87-16.78 267.07-15.6 265.47-15.6L265.47-15.6Q264.67-15.6 264.2-15.93 263.72-16.25 263.67-16.4L263.67-16.4Q263.67-16.5 264.15-17 264.62-17.5 264.62-18.25L264.62-18.25Q264.62-19.15 264.15-19.7 263.67-20.25 262.87-20.25L262.87-20.25Q262.02-20.25 260.7-19.4 259.37-18.55 258.17-17.35L258.17-17.35 258.17-5.15Q258.17-4.3 258.25-3.5 258.32-2.7 258.85-2.23 259.37-1.75 260.77-1.75L260.77-1.75Q261.22-1.75 261.55-1.68 261.87-1.6 261.92-0.85L261.92-0.85Q261.92-0.5 261.72-0.18 261.52 0.15 261.12 0.15L261.12 0.15Q259.67 0.05 258.45 0.03 257.22 0 255.87 0L255.87 0Q254.52 0 253.32 0.03 252.12 0.05 250.67 0.15ZM298.52 1L298.52 1Q294.32 1 290.82-1 287.32-3 285.19-6.7 283.07-10.4 283.07-15.55L283.07-15.55Q283.07-20.65 285.07-24.48 287.07-28.3 290.74-30.43 294.42-32.55 299.42-32.55L299.42-32.55Q301.22-32.55 303.14-32.2 305.07-31.85 306.72-31.03 308.37-30.2 309.39-28.85 310.42-27.5 310.42-25.5L310.42-25.5Q310.47-23.35 309.12-21.73 307.77-20.1 305.32-20.1L305.32-20.1Q303.82-20.1 303.19-20.83 302.57-21.55 302.62-21.9L302.62-21.9Q302.62-22.05 303.24-22.43 303.87-22.8 304.49-23.58 305.12-24.35 305.12-25.65L305.12-25.65Q305.12-27.9 303.62-29.23 302.12-30.55 299.37-30.55L299.37-30.55Q296.37-30.55 293.99-28.85 291.62-27.15 290.27-23.88 288.92-20.6 288.92-15.85L288.92-15.85Q288.92-11.85 290.34-8.58 291.77-5.3 294.34-3.38 296.92-1.45 300.32-1.45L300.32-1.45Q303.02-1.45 304.94-2.58 306.87-3.7 308.42-6.2L308.42-6.2Q308.87-7.05 310.02-6.35L310.02-6.35Q310.47-6.05 310.72-5.63 310.97-5.2 310.62-4.75L310.62-4.75Q308.72-2.35 307.02-1.13 305.32 0.1 303.32 0.55 301.32 1 298.52 1ZM320.96 0.6L320.96 0.6Q317.91 0.6 316.09-1.15 314.26-2.9 314.26-5.35L314.26-5.35Q314.26-7.9 315.59-9.35 316.91-10.8 319.09-11.5 321.26-12.2 323.84-12.45 326.41-12.7 328.86-12.85L328.86-12.85 328.86-16.8Q328.86-19.15 327.69-20.48 326.51-21.8 323.71-21.8L323.71-21.8Q322.31-21.8 321.09-20.9 319.86-20 319.86-18.3L319.86-18.3Q319.86-17.5 320.26-16.95 320.66-16.4 321.06-16.1 321.46-15.8 321.46-15.7L321.46-15.7Q321.46-15.5 320.89-14.98 320.31-14.45 319.31-14.45L319.31-14.45Q317.76-14.45 316.91-15.6 316.06-16.75 316.06-18.15L316.06-18.15Q316.06-20.05 317.24-21.15 318.41-22.25 320.26-22.75 322.11-23.25 324.01-23.25L324.01-23.25Q326.26-23.25 328.39-22.7 330.51-22.15 331.89-20.6 333.26-19.05 333.26-15.95L333.26-15.95 333.26-4.3Q333.31-3.8 333.51-3.1 333.71-2.4 334.29-1.88 334.86-1.35 335.86-1.35L335.86-1.35Q336.21-1.35 336.41-1.23 336.61-1.1 336.61-0.55L336.61-0.55Q336.61-0.1 336.11 0.15 335.61 0.4 334.96 0.5 334.31 0.6 333.86 0.6L333.86 0.6Q332.01 0.6 330.56-0.48 329.11-1.55 328.86-3.45L328.86-3.45Q327.76-1.45 325.59-0.43 323.41 0.6 320.96 0.6ZM322.56-2.1L322.56-2.1Q324.26-2.1 325.69-2.95 327.11-3.8 327.99-5.28 328.86-6.75 328.86-8.55L328.86-8.55 328.86-11.4Q323.71-11.05 321.51-9.75 319.31-8.45 319.31-5.5L319.31-5.5Q319.31-2.1 322.56-2.1ZM339.81 0.15L339.81 0.15Q339.46 0.15 339.24-0.18 339.01-0.5 339.01-0.85L339.01-0.85Q339.11-1.6 339.41-1.68 339.71-1.75 340.21-1.75L340.21-1.75Q341.61-1.75 342.11-2.23 342.61-2.7 342.69-3.5 342.76-4.3 342.76-5.15L342.76-5.15 342.76-16.6Q342.76-17.5 342.69-18.28 342.61-19.05 342.11-19.53 341.61-20 340.21-20L340.21-20Q339.76-20 339.39-20.13 339.01-20.25 339.01-21L339.01-21Q339.01-21.75 339.81-21.9L339.81-21.9Q342.11-22.25 343.34-22.6 344.56-22.95 345.19-23.2 345.81-23.45 346.31-23.5L346.31-23.5Q346.71-23.55 346.99-23.35 347.26-23.15 347.26-22.55L347.26-22.55 347.26-19.45 347.41-19.45Q349.11-21.1 350.91-22.18 352.71-23.25 354.21-23.25L354.21-23.25Q355.96-23.25 356.89-21.95 357.81-20.65 357.81-19.2L357.81-19.2Q357.81-17.95 357.01-16.78 356.21-15.6 354.61-15.6L354.61-15.6Q353.81-15.6 353.34-15.93 352.86-16.25 352.81-16.4L352.81-16.4Q352.81-16.5 353.29-17 353.76-17.5 353.76-18.25L353.76-18.25Q353.76-19.15 353.29-19.7 352.81-20.25 352.01-20.25L352.01-20.25Q351.16-20.25 349.84-19.4 348.51-18.55 347.31-17.35L347.31-17.35 347.31-5.15Q347.31-4.3 347.39-3.5 347.46-2.7 347.99-2.23 348.51-1.75 349.91-1.75L349.91-1.75Q350.36-1.75 350.69-1.68 351.01-1.6 351.06-0.85L351.06-0.85Q351.06-0.5 350.86-0.18 350.66 0.15 350.26 0.15L350.26 0.15Q348.81 0.05 347.59 0.03 346.36 0 345.01 0L345.01 0Q343.66 0 342.46 0.03 341.26 0.05 339.81 0.15ZM372.16 0.6L372.16 0.6Q368.31 0.6 365.68-1.05 363.06-2.7 361.76-5.45 360.46-8.2 360.46-11.45L360.46-11.45Q360.46-13.65 361.23-15.73 362.01-17.8 363.46-19.53 364.91-21.25 366.96-22.25 369.01-23.25 371.61-23.25L371.61-23.25Q376.21-23.25 378.53-20.88 380.86-18.5 381.21-14.85L381.21-14.85Q381.21-13.1 380.23-12.55 379.26-12 377.71-12L377.71-12 365.56-12Q365.56-9.1 366.36-6.83 367.16-4.55 368.88-3.23 370.61-1.9 373.46-1.9L373.46-1.9Q375.56-1.9 377.06-2.8 378.56-3.7 379.96-5.95L379.96-5.95Q380.36-6.45 381.06-6L381.06-6Q381.46-5.8 381.56-5.38 381.66-4.95 381.46-4.65L381.46-4.65Q379.91-2.2 377.56-0.8 375.21 0.6 372.16 0.6ZM365.56-13.9L365.56-13.9 373.71-13.9Q374.91-13.9 375.63-14.38 376.36-14.85 376.41-16L376.41-16Q376.41-18.15 375.23-19.83 374.06-21.5 371.61-21.5L371.61-21.5Q369.11-21.5 367.43-19.5 365.76-17.5 365.56-13.9ZM397.26 0.6L397.26 0.6Q393.41 0.6 390.78-1.05 388.16-2.7 386.86-5.45 385.56-8.2 385.56-11.45L385.56-11.45Q385.56-13.65 386.33-15.73 387.11-17.8 388.56-19.53 390.01-21.25 392.06-22.25 394.11-23.25 396.71-23.25L396.71-23.25Q401.31-23.25 403.63-20.88 405.96-18.5 406.31-14.85L406.31-14.85Q406.31-13.1 405.33-12.55 404.36-12 402.81-12L402.81-12 390.66-12Q390.66-9.1 391.46-6.83 392.26-4.55 393.98-3.23 395.71-1.9 398.56-1.9L398.56-1.9Q400.66-1.9 402.16-2.8 403.66-3.7 405.06-5.95L405.06-5.95Q405.46-6.45 406.16-6L406.16-6Q406.56-5.8 406.66-5.38 406.76-4.95 406.56-4.65L406.56-4.65Q405.01-2.2 402.66-0.8 400.31 0.6 397.26 0.6ZM390.66-13.9L390.66-13.9 398.81-13.9Q400.01-13.9 400.73-14.38 401.46-14.85 401.51-16L401.51-16Q401.51-18.15 400.33-19.83 399.16-21.5 396.71-21.5L396.71-21.5Q394.21-21.5 392.53-19.5 390.86-17.5 390.66-13.9ZM411.06 0.15L411.06 0.15Q410.71 0.15 410.48-0.18 410.25-0.5 410.25-0.85L410.25-0.85Q410.36-1.6 410.66-1.68 410.96-1.75 411.46-1.75L411.46-1.75Q412.86-1.75 413.36-2.23 413.86-2.7 413.93-3.5 414-4.3 414-5.15L414-5.15 414-16.6Q414-17.5 413.93-18.28 413.86-19.05 413.36-19.53 412.86-20 411.46-20L411.46-20Q411-20 410.63-20.13 410.25-20.25 410.25-21L410.25-21Q410.25-21.75 411.06-21.9L411.06-21.9Q413.36-22.25 414.58-22.6 415.81-22.95 416.43-23.2 417.06-23.45 417.56-23.5L417.56-23.5Q417.96-23.55 418.23-23.35 418.5-23.15 418.5-22.55L418.5-22.55 418.5-19.45 418.66-19.45Q420.36-21.1 422.16-22.18 423.96-23.25 425.46-23.25L425.46-23.25Q427.21-23.25 428.13-21.95 429.06-20.65 429.06-19.2L429.06-19.2Q429.06-17.95 428.25-16.78 427.46-15.6 425.86-15.6L425.86-15.6Q425.06-15.6 424.58-15.93 424.11-16.25 424.06-16.4L424.06-16.4Q424.06-16.5 424.53-17 425-17.5 425-18.25L425-18.25Q425-19.15 424.53-19.7 424.06-20.25 423.25-20.25L423.25-20.25Q422.41-20.25 421.08-19.4 419.75-18.55 418.56-17.35L418.56-17.35 418.56-5.15Q418.56-4.3 418.63-3.5 418.71-2.7 419.23-2.23 419.75-1.75 421.16-1.75L421.16-1.75Q421.61-1.75 421.93-1.68 422.25-1.6 422.31-0.85L422.31-0.85Q422.31-0.5 422.11-0.18 421.91 0.15 421.5 0.15L421.5 0.15Q420.06 0.05 418.83 0.03 417.61 0 416.25 0L416.25 0Q414.91 0 413.71 0.03 412.5 0.05 411.06 0.15ZM440.75 0.6L440.75 0.6Q436.9 0.6 434.33-0.78 431.75-2.15 431.75-4.75L431.75-4.75Q431.75-6.2 432.63-7.1 433.5-8 434.9-8L434.9-8Q435.8-8 436.38-7.53 436.95-7.05 436.95-6.85L436.95-6.85Q436.95-6.7 436.38-6.18 435.8-5.65 435.8-4.5L435.8-4.5Q435.8-3.1 437.13-2.18 438.45-1.25 441.15-1.25L441.15-1.25Q443.5-1.25 444.83-2.27 446.15-3.3 446.15-5.15L446.15-5.15Q446.15-6.65 445.18-7.48 444.2-8.3 442.68-8.8 441.15-9.3 439.43-9.8 437.7-10.3 436.15-11.05 434.6-11.8 433.63-13.13 432.65-14.45 432.65-16.65L432.65-16.65Q432.65-18.9 434-20.35 435.35-21.8 437.45-22.53 439.55-23.25 441.7-23.25L441.7-23.25Q443.55-23.25 445.2-22.73 446.85-22.2 447.93-21.15 449-20.1 449-18.5L449-18.5Q449-17.25 448.2-16.25 447.4-15.25 446-15.25L446-15.25Q445.1-15.25 444.53-15.73 443.95-16.2 443.95-16.4L443.95-16.4Q443.95-16.5 444.33-16.78 444.7-17.05 445.05-17.53 445.4-18 445.4-18.75L445.4-18.75Q445.3-20.2 444-20.9 442.7-21.6 441.1-21.6L441.1-21.6Q439.35-21.6 437.85-20.75 436.35-19.9 436.35-18.3L436.35-18.3Q436.35-16.85 436.98-16.05 437.6-15.25 438.98-14.68 440.35-14.1 442.55-13.4L442.55-13.4Q444.75-12.7 446.43-11.95 448.1-11.2 449.03-9.98 449.95-8.75 449.95-6.65L449.95-6.65Q449.95-4.55 448.75-2.9 447.55-1.25 445.48-0.33 443.4 0.6 440.75 0.6Z" opacity="1" transform="matrix(1,0,0,1,0,0)" fill="#0b82e6" class="slogan-text-1" data-fill-palette-color="secondary" id="text-1"></path></svg></g></svg></g></svg></g></svg></g></svg></g></svg></g></svg></g><path d="M205.76 84.764L205.76 21.819 2.199 21.819 2.199 225.381 205.76 225.381 205.76 162.436 202.46 162.436 202.46 222.081 5.499 222.081 5.499 25.119 202.46 25.119 202.46 84.764Z" fill="#0b82e6" stroke="transparent" data-fill-palette-color="tertiary"></path></svg></g><defs></defs></svg><rect width="395.52" height="247.2" fill="none" stroke="none" visibility="hidden"></rect></g></svg></g></svg>